<?xml version="1.0" encoding="UTF-8"?>
<svg xmlns="http://www.w3.org/2000/svg" xmlns:xlink="http://www.w3.org/1999/xlink" viewBox="0 0 128 128" width="128px" height="128px">
<g id="surface51814181">
<path style=" stroke:none;fill-rule:evenodd;fill:rgb(100%,100%,100%);fill-opacity:1;" d="M 64 16 C 37.484375 16 16 37.484375 16 64 C 16 85.203125 29.75 103.203125 48.828125 109.546875 C 51.234375 109.984375 52.109375 108.515625 52.109375 107.234375 C 52.109375 106.09375 52.0625 103.078125 52.046875 99.078125 C 38.6875 101.96875 35.875 92.640625 35.875 92.640625 C 33.6875 87.09375 30.546875 85.609375 30.546875 85.609375 C 26.1875 82.640625 30.875 82.703125 30.875 82.703125 C 35.6875 83.046875 38.21875 87.640625 38.21875 87.640625 C 42.5 94.984375 49.453125 92.859375 52.1875 91.640625 C 52.625 88.53125 53.875 86.421875 55.234375 85.21875 C 44.578125 84.015625 33.375 79.890625 33.375 61.5 C 33.375 56.25 35.25 51.96875 38.3125 48.609375 C 37.828125 47.40625 36.171875 42.515625 38.78125 35.90625 C 38.78125 35.90625 42.8125 34.625 51.984375 40.828125 C 55.8125 39.765625 59.921875 39.234375 64 39.21875 C 68.078125 39.234375 72.1875 39.765625 76.015625 40.828125 C 85.1875 34.625 89.203125 35.90625 89.203125 35.90625 C 91.828125 42.515625 90.1875 47.40625 89.6875 48.609375 C 92.765625 51.96875 94.609375 56.25 94.609375 61.5 C 94.609375 79.9375 83.390625 83.984375 72.703125 85.1875 C 74.421875 86.65625 75.953125 89.59375 75.953125 94.0625 C 75.953125 100.484375 75.90625 105.65625 75.90625 107.234375 C 75.90625 108.515625 76.765625 110.015625 79.203125 109.546875 C 98.265625 103.1875 112 85.203125 112 64 C 112 37.484375 90.515625 16 64 16 Z M 64 16 "/>
</g>
</svg>
